<svg width="694" height="493" viewBox="0 0 694 493" fill="none" xmlns="http://www.w3.org/2000/svg">
<g opacity="0.5" clip-path="url(#clip0_2_2489)">
<mask id="path-1-inside-1_2_2489" fill="white">
<path d="M0 -57.25H86.75V29.5H0V-57.25Z"/>
</mask>
<path d="M86.75 28.7771H0V30.2229H86.75V28.7771Z" fill="white" mask="url(#path-1-inside-1_2_2489)"/>
<mask id="path-3-inside-2_2_2489" fill="white">
<path d="M86.75 -57.25H173.5V29.5H86.75V-57.25Z"/>
</mask>
<path d="M86.75 29.5H86.0271V30.2229H86.75V29.5ZM173.5 28.7771H86.75V30.2229H173.5V28.7771ZM87.4729 29.5V-57.25H86.0271V29.5H87.4729Z" fill="white" mask="url(#path-3-inside-2_2_2489)"/>
<mask id="path-5-inside-3_2_2489" fill="white">
<path d="M173.5 -57.25H260.25V29.5H173.5V-57.25Z"/>
</mask>
<path d="M173.5 -57.25H260.25V29.5H173.5V-57.25Z" fill="white" fill-opacity="0.3"/>
<path d="M173.5 29.5H172.777V30.2229H173.5V29.5ZM260.25 28.7771H173.5V30.2229H260.25V28.7771ZM174.223 29.5V-57.25H172.777V29.5H174.223Z" fill="white" mask="url(#path-5-inside-3_2_2489)"/>
<mask id="path-7-inside-4_2_2489" fill="white">
<path d="M260.25 -57.25H347V29.5H260.25V-57.25Z"/>
</mask>
<path d="M260.25 29.5H259.527V30.2229H260.25V29.5ZM347 28.7771H260.25V30.2229H347V28.7771ZM260.973 29.5V-57.25H259.527V29.5H260.973Z" fill="white" mask="url(#path-7-inside-4_2_2489)"/>
<mask id="path-9-inside-5_2_2489" fill="white">
<path d="M347 -57.25H433.75V29.5H347V-57.25Z"/>
</mask>
<path d="M347 29.5H346.277V30.2229H347V29.5ZM433.75 28.7771H347V30.2229H433.75V28.7771ZM347.723 29.5V-57.25H346.277V29.5H347.723Z" fill="white" mask="url(#path-9-inside-5_2_2489)"/>
<mask id="path-11-inside-6_2_2489" fill="white">
<path d="M433.75 -57.25H520.5V29.5H433.75V-57.25Z"/>
</mask>
<path d="M433.75 29.5H433.027V30.2229H433.75V29.5ZM520.5 28.7771H433.75V30.2229H520.5V28.7771ZM434.473 29.5V-57.25H433.027V29.5H434.473Z" fill="white" mask="url(#path-11-inside-6_2_2489)"/>
<mask id="path-13-inside-7_2_2489" fill="white">
<path d="M520.5 -57.25H607.25V29.5H520.5V-57.25Z"/>
</mask>
<path d="M520.5 29.5H519.777V30.2229H520.5V29.5ZM607.25 28.7771H520.5V30.2229H607.25V28.7771ZM521.223 29.5V-57.25H519.777V29.5H521.223Z" fill="white" mask="url(#path-13-inside-7_2_2489)"/>
<mask id="path-15-inside-8_2_2489" fill="white">
<path d="M607.25 -57.25H694V29.5H607.25V-57.25Z"/>
</mask>
<path d="M607.25 29.5H606.527V30.2229H607.25V29.5ZM694 28.7771H607.25V30.2229H694V28.7771ZM607.973 29.5V-57.25H606.527V29.5H607.973Z" fill="white" mask="url(#path-15-inside-8_2_2489)"/>
<mask id="path-17-inside-9_2_2489" fill="white">
<path d="M0 29.5H86.75V116.25H0V29.5Z"/>
</mask>
<path d="M86.75 115.527H0V116.973H86.75V115.527Z" fill="white" mask="url(#path-17-inside-9_2_2489)"/>
<mask id="path-19-inside-10_2_2489" fill="white">
<path d="M86.75 29.5H173.5V116.25H86.75V29.5Z"/>
</mask>
<path d="M86.75 116.25H86.0271V116.973H86.75V116.25ZM173.5 115.527H86.75V116.973H173.5V115.527ZM87.4729 116.25V29.5H86.0271V116.25H87.4729Z" fill="white" mask="url(#path-19-inside-10_2_2489)"/>
<mask id="path-21-inside-11_2_2489" fill="white">
<path d="M173.5 29.5H260.25V116.25H173.5V29.5Z"/>
</mask>
<path d="M173.5 116.25H172.777V116.973H173.5V116.25ZM260.25 115.527H173.5V116.973H260.25V115.527ZM174.223 116.25V29.5H172.777V116.25H174.223Z" fill="white" mask="url(#path-21-inside-11_2_2489)"/>
<mask id="path-23-inside-12_2_2489" fill="white">
<path d="M260.25 29.5H347V116.25H260.25V29.5Z"/>
</mask>
<path d="M260.25 116.25H259.527V116.973H260.25V116.25ZM347 115.527H260.25V116.973H347V115.527ZM260.973 116.25V29.5H259.527V116.25H260.973Z" fill="white" mask="url(#path-23-inside-12_2_2489)"/>
<mask id="path-25-inside-13_2_2489" fill="white">
<path d="M347 29.5H433.75V116.25H347V29.5Z"/>
</mask>
<path d="M347 116.25H346.277V116.973H347V116.25ZM433.75 115.527H347V116.973H433.75V115.527ZM347.723 116.25V29.5H346.277V116.25H347.723Z" fill="white" mask="url(#path-25-inside-13_2_2489)"/>
<mask id="path-27-inside-14_2_2489" fill="white">
<path d="M433.75 29.5H520.5V116.25H433.75V29.5Z"/>
</mask>
<path d="M433.75 29.5H520.5V116.25H433.75V29.5Z" fill="white" fill-opacity="0.3"/>
<path d="M433.75 116.25H433.027V116.973H433.75V116.25ZM520.5 115.527H433.75V116.973H520.5V115.527ZM434.473 116.25V29.5H433.027V116.25H434.473Z" fill="white" mask="url(#path-27-inside-14_2_2489)"/>
<mask id="path-29-inside-15_2_2489" fill="white">
<path d="M520.5 29.5H607.25V116.25H520.5V29.5Z"/>
</mask>
<path d="M520.5 116.25H519.777V116.973H520.5V116.25ZM607.25 115.527H520.5V116.973H607.25V115.527ZM521.223 116.25V29.5H519.777V116.25H521.223Z" fill="white" mask="url(#path-29-inside-15_2_2489)"/>
<mask id="path-31-inside-16_2_2489" fill="white">
<path d="M607.25 29.5H694V116.25H607.25V29.5Z"/>
</mask>
<path d="M607.25 116.25H606.527V116.973H607.25V116.25ZM694 115.527H607.25V116.973H694V115.527ZM607.973 116.25V29.5H606.527V116.25H607.973Z" fill="white" mask="url(#path-31-inside-16_2_2489)"/>
<mask id="path-33-inside-17_2_2489" fill="white">
<path d="M0 116.25H86.75V203H0V116.25Z"/>
</mask>
<path d="M0 116.25H86.75V203H0V116.25Z" fill="white" fill-opacity="0.3"/>
<path d="M86.75 202.277H0V203.723H86.75V202.277Z" fill="white" mask="url(#path-33-inside-17_2_2489)"/>
<mask id="path-35-inside-18_2_2489" fill="white">
<path d="M86.75 116.25H173.5V203H86.75V116.25Z"/>
</mask>
<path d="M86.75 203H86.0271V203.723H86.75V203ZM173.5 202.277H86.75V203.723H173.5V202.277ZM87.4729 203V116.25H86.0271V203H87.4729Z" fill="white" mask="url(#path-35-inside-18_2_2489)"/>
<mask id="path-37-inside-19_2_2489" fill="white">
<path d="M173.5 116.25H260.25V203H173.5V116.25Z"/>
</mask>
<path d="M173.5 203H172.777V203.723H173.5V203ZM260.25 202.277H173.5V203.723H260.25V202.277ZM174.223 203V116.25H172.777V203H174.223Z" fill="white" mask="url(#path-37-inside-19_2_2489)"/>
<mask id="path-39-inside-20_2_2489" fill="white">
<path d="M260.25 116.25H347V203H260.25V116.25Z"/>
</mask>
<path d="M260.25 116.25H347V203H260.25V116.25Z" fill="white" fill-opacity="0.3"/>
<path d="M260.25 203H259.527V203.723H260.25V203ZM347 202.277H260.25V203.723H347V202.277ZM260.973 203V116.25H259.527V203H260.973Z" fill="white" mask="url(#path-39-inside-20_2_2489)"/>
<mask id="path-41-inside-21_2_2489" fill="white">
<path d="M347 116.25H433.75V203H347V116.25Z"/>
</mask>
<path d="M347 203H346.277V203.723H347V203ZM433.75 202.277H347V203.723H433.75V202.277ZM347.723 203V116.25H346.277V203H347.723Z" fill="white" mask="url(#path-41-inside-21_2_2489)"/>
<mask id="path-43-inside-22_2_2489" fill="white">
<path d="M433.75 116.25H520.5V203H433.75V116.25Z"/>
</mask>
<path d="M433.75 203H433.027V203.723H433.75V203ZM520.5 202.277H433.75V203.723H520.5V202.277ZM434.473 203V116.25H433.027V203H434.473Z" fill="white" mask="url(#path-43-inside-22_2_2489)"/>
<mask id="path-45-inside-23_2_2489" fill="white">
<path d="M520.5 116.25H607.25V203H520.5V116.25Z"/>
</mask>
<path d="M520.5 203H519.777V203.723H520.5V203ZM607.25 202.277H520.5V203.723H607.25V202.277ZM521.223 203V116.25H519.777V203H521.223Z" fill="white" mask="url(#path-45-inside-23_2_2489)"/>
<mask id="path-47-inside-24_2_2489" fill="white">
<path d="M607.25 116.25H694V203H607.25V116.25Z"/>
</mask>
<path d="M607.25 203H606.527V203.723H607.25V203ZM694 202.277H607.25V203.723H694V202.277ZM607.973 203V116.25H606.527V203H607.973Z" fill="white" mask="url(#path-47-inside-24_2_2489)"/>
<mask id="path-49-inside-25_2_2489" fill="white">
<path d="M0 203H86.75V289.75H0V203Z"/>
</mask>
<path d="M86.75 289.027H0V290.473H86.75V289.027Z" fill="white" mask="url(#path-49-inside-25_2_2489)"/>
<mask id="path-51-inside-26_2_2489" fill="white">
<path d="M86.75 203H173.5V289.75H86.75V203Z"/>
</mask>
<path d="M86.75 203H173.5V289.75H86.75V203Z" fill="white" fill-opacity="0.3"/>
<path d="M86.75 289.75H86.0271V290.473H86.75V289.75ZM173.5 289.027H86.75V290.473H173.5V289.027ZM87.4729 289.75V203H86.0271V289.75H87.4729Z" fill="white" mask="url(#path-51-inside-26_2_2489)"/>
<mask id="path-53-inside-27_2_2489" fill="white">
<path d="M173.5 203H260.25V289.75H173.5V203Z"/>
</mask>
<path d="M173.5 289.75H172.777V290.473H173.5V289.75ZM260.25 289.027H173.5V290.473H260.25V289.027ZM174.223 289.75V203H172.777V289.75H174.223Z" fill="white" mask="url(#path-53-inside-27_2_2489)"/>
<mask id="path-55-inside-28_2_2489" fill="white">
<path d="M260.25 203H347V289.75H260.25V203Z"/>
</mask>
<path d="M260.25 289.75H259.527V290.473H260.25V289.75ZM347 289.027H260.25V290.473H347V289.027ZM260.973 289.75V203H259.527V289.75H260.973Z" fill="white" mask="url(#path-55-inside-28_2_2489)"/>
<mask id="path-57-inside-29_2_2489" fill="white">
<path d="M347 203H433.75V289.75H347V203Z"/>
</mask>
<path d="M347 289.75H346.277V290.473H347V289.75ZM433.75 289.027H347V290.473H433.75V289.027ZM347.723 289.75V203H346.277V289.75H347.723Z" fill="white" mask="url(#path-57-inside-29_2_2489)"/>
<mask id="path-59-inside-30_2_2489" fill="white">
<path d="M433.75 203H520.5V289.75H433.75V203Z"/>
</mask>
<path d="M433.75 289.75H433.027V290.473H433.75V289.75ZM520.5 289.027H433.75V290.473H520.5V289.027ZM434.473 289.75V203H433.027V289.75H434.473Z" fill="white" mask="url(#path-59-inside-30_2_2489)"/>
<mask id="path-61-inside-31_2_2489" fill="white">
<path d="M520.5 203H607.25V289.75H520.5V203Z"/>
</mask>
<path d="M520.5 203H607.25V289.75H520.5V203Z" fill="white" fill-opacity="0.3"/>
<path d="M520.5 289.75H519.777V290.473H520.5V289.75ZM607.25 289.027H520.5V290.473H607.25V289.027ZM521.223 289.75V203H519.777V289.75H521.223Z" fill="white" mask="url(#path-61-inside-31_2_2489)"/>
<mask id="path-63-inside-32_2_2489" fill="white">
<path d="M607.25 203H694V289.75H607.25V203Z"/>
</mask>
<path d="M607.25 289.75H606.527V290.473H607.25V289.75ZM694 289.027H607.25V290.473H694V289.027ZM607.973 289.75V203H606.527V289.75H607.973Z" fill="white" mask="url(#path-63-inside-32_2_2489)"/>
<mask id="path-65-inside-33_2_2489" fill="white">
<path d="M0 289.75H86.75V376.5H0V289.75Z"/>
</mask>
<path d="M86.75 375.777H0V377.223H86.75V375.777Z" fill="white" mask="url(#path-65-inside-33_2_2489)"/>
<mask id="path-67-inside-34_2_2489" fill="white">
<path d="M86.75 289.75H173.5V376.5H86.75V289.75Z"/>
</mask>
<path d="M86.75 376.5H86.0271V377.223H86.75V376.5ZM173.5 375.777H86.75V377.223H173.5V375.777ZM87.4729 376.5V289.75H86.0271V376.5H87.4729Z" fill="white" mask="url(#path-67-inside-34_2_2489)"/>
<mask id="path-69-inside-35_2_2489" fill="white">
<path d="M173.5 289.75H260.25V376.5H173.5V289.75Z"/>
</mask>
<path d="M173.5 376.5H172.777V377.223H173.5V376.5ZM260.25 375.777H173.5V377.223H260.25V375.777ZM174.223 376.5V289.75H172.777V376.5H174.223Z" fill="white" mask="url(#path-69-inside-35_2_2489)"/>
<mask id="path-71-inside-36_2_2489" fill="white">
<path d="M260.25 289.75H347V376.5H260.25V289.75Z"/>
</mask>
<path d="M260.25 376.5H259.527V377.223H260.25V376.5ZM347 375.777H260.25V377.223H347V375.777ZM260.973 376.5V289.75H259.527V376.5H260.973Z" fill="white" mask="url(#path-71-inside-36_2_2489)"/>
<mask id="path-73-inside-37_2_2489" fill="white">
<path d="M347 289.75H433.75V376.5H347V289.75Z"/>
</mask>
<path d="M347 289.75H433.75V376.5H347V289.75Z" fill="white" fill-opacity="0.3"/>
<path d="M347 376.5H346.277V377.223H347V376.5ZM433.75 375.777H347V377.223H433.75V375.777ZM347.723 376.5V289.75H346.277V376.5H347.723Z" fill="white" mask="url(#path-73-inside-37_2_2489)"/>
<mask id="path-75-inside-38_2_2489" fill="white">
<path d="M433.75 289.75H520.5V376.5H433.75V289.75Z"/>
</mask>
<path d="M433.75 376.5H433.027V377.223H433.75V376.5ZM520.5 375.777H433.75V377.223H520.5V375.777ZM434.473 376.5V289.75H433.027V376.5H434.473Z" fill="white" mask="url(#path-75-inside-38_2_2489)"/>
<mask id="path-77-inside-39_2_2489" fill="white">
<path d="M520.5 289.75H607.25V376.5H520.5V289.75Z"/>
</mask>
<path d="M520.5 376.5H519.777V377.223H520.5V376.5ZM607.25 375.777H520.5V377.223H607.25V375.777ZM521.223 376.5V289.75H519.777V376.5H521.223Z" fill="white" mask="url(#path-77-inside-39_2_2489)"/>
<mask id="path-79-inside-40_2_2489" fill="white">
<path d="M607.25 289.75H694V376.5H607.25V289.75Z"/>
</mask>
<path d="M607.25 376.5H606.527V377.223H607.25V376.5ZM694 375.777H607.25V377.223H694V375.777ZM607.973 376.5V289.75H606.527V376.5H607.973Z" fill="white" mask="url(#path-79-inside-40_2_2489)"/>
<mask id="path-81-inside-41_2_2489" fill="white">
<path d="M0 376.5H86.75V463.25H0V376.5Z"/>
</mask>
<path d="M86.75 462.527H0V463.973H86.75V462.527Z" fill="white" mask="url(#path-81-inside-41_2_2489)"/>
<mask id="path-83-inside-42_2_2489" fill="white">
<path d="M86.75 376.5H173.5V463.25H86.75V376.5Z"/>
</mask>
<path d="M86.75 463.25H86.0271V463.973H86.75V463.25ZM173.5 462.527H86.75V463.973H173.5V462.527ZM87.4729 463.25V376.5H86.0271V463.25H87.4729Z" fill="white" mask="url(#path-83-inside-42_2_2489)"/>
<mask id="path-85-inside-43_2_2489" fill="white">
<path d="M173.5 376.5H260.25V463.25H173.5V376.5Z"/>
</mask>
<path d="M173.5 463.25H172.777V463.973H173.5V463.25ZM260.25 462.527H173.5V463.973H260.25V462.527ZM174.223 463.25V376.5H172.777V463.25H174.223Z" fill="white" mask="url(#path-85-inside-43_2_2489)"/>
<mask id="path-87-inside-44_2_2489" fill="white">
<path d="M260.25 376.5H347V463.25H260.25V376.5Z"/>
</mask>
<path d="M260.25 376.5H347V463.25H260.25V376.5Z" fill="white" fill-opacity="0.3"/>
<path d="M260.25 463.25H259.527V463.973H260.25V463.25ZM347 462.527H260.25V463.973H347V462.527ZM260.973 463.25V376.5H259.527V463.25H260.973Z" fill="white" mask="url(#path-87-inside-44_2_2489)"/>
<mask id="path-89-inside-45_2_2489" fill="white">
<path d="M347 376.5H433.75V463.25H347V376.5Z"/>
</mask>
<path d="M347 463.25H346.277V463.973H347V463.25ZM433.75 462.527H347V463.973H433.75V462.527ZM347.723 463.25V376.5H346.277V463.25H347.723Z" fill="white" mask="url(#path-89-inside-45_2_2489)"/>
<mask id="path-91-inside-46_2_2489" fill="white">
<path d="M433.75 376.5H520.5V463.25H433.75V376.5Z"/>
</mask>
<path d="M433.75 463.25H433.027V463.973H433.75V463.25ZM520.5 462.527H433.75V463.973H520.5V462.527ZM434.473 463.25V376.5H433.027V463.25H434.473Z" fill="white" mask="url(#path-91-inside-46_2_2489)"/>
<mask id="path-93-inside-47_2_2489" fill="white">
<path d="M520.5 376.5H607.25V463.25H520.5V376.5Z"/>
</mask>
<path d="M520.5 463.25H519.777V463.973H520.5V463.25ZM607.25 462.527H520.5V463.973H607.25V462.527ZM521.223 463.25V376.5H519.777V463.25H521.223Z" fill="white" mask="url(#path-93-inside-47_2_2489)"/>
<mask id="path-95-inside-48_2_2489" fill="white">
<path d="M607.25 376.5H694V463.25H607.25V376.5Z"/>
</mask>
<path d="M607.25 463.25H606.527V463.973H607.25V463.25ZM694 462.527H607.25V463.973H694V462.527ZM607.973 463.25V376.5H606.527V463.25H607.973Z" fill="white" mask="url(#path-95-inside-48_2_2489)"/>
<mask id="path-97-inside-49_2_2489" fill="white">
<path d="M86.75 463.25H173.5V550H86.75V463.25Z"/>
</mask>
<path d="M87.4729 550V463.25H86.0271V550H87.4729Z" fill="white" mask="url(#path-97-inside-49_2_2489)"/>
<mask id="path-99-inside-50_2_2489" fill="white">
<path d="M173.5 463.25H260.25V550H173.5V463.25Z"/>
</mask>
<path d="M174.223 550V463.25H172.777V550H174.223Z" fill="white" mask="url(#path-99-inside-50_2_2489)"/>
<mask id="path-101-inside-51_2_2489" fill="white">
<path d="M260.25 463.25H347V550H260.25V463.25Z"/>
</mask>
<path d="M260.973 550V463.25H259.527V550H260.973Z" fill="white" mask="url(#path-101-inside-51_2_2489)"/>
<mask id="path-103-inside-52_2_2489" fill="white">
<path d="M347 463.25H433.75V550H347V463.25Z"/>
</mask>
<path d="M347.723 550V463.25H346.277V550H347.723Z" fill="white" mask="url(#path-103-inside-52_2_2489)"/>
<mask id="path-105-inside-53_2_2489" fill="white">
<path d="M433.75 463.25H520.5V550H433.75V463.25Z"/>
</mask>
<path d="M434.473 550V463.25H433.027V550H434.473Z" fill="white" mask="url(#path-105-inside-53_2_2489)"/>
<mask id="path-107-inside-54_2_2489" fill="white">
<path d="M520.5 463.25H607.25V550H520.5V463.25Z"/>
</mask>
<path d="M521.223 550V463.25H519.777V550H521.223Z" fill="white" mask="url(#path-107-inside-54_2_2489)"/>
<mask id="path-109-inside-55_2_2489" fill="white">
<path d="M607.25 463.25H694V550H607.25V463.25Z"/>
</mask>
<path d="M607.973 550V463.25H606.527V550H607.973Z" fill="white" mask="url(#path-109-inside-55_2_2489)"/>
<g filter="url(#filter0_f_2_2489)">
<path d="M1038.11 203C1038.11 584.689 728.688 894.108 347 894.108C-34.6887 894.108 -344.108 584.689 -344.108 203C-344.108 -178.689 -34.6887 -488.108 347 -488.108C728.688 -488.108 1038.11 -178.689 1038.11 203Z" fill="url(#paint0_radial_2_2489)"/>
</g>
</g>
<defs>
<filter id="filter0_f_2_2489" x="-560.983" y="-704.983" width="1815.97" height="1815.97" filterUnits="userSpaceOnUse" color-interpolation-filters="sRGB">
<feFlood flood-opacity="0" result="BackgroundImageFix"/>
<feBlend mode="normal" in="SourceGraphic" in2="BackgroundImageFix" result="shape"/>
<feGaussianBlur stdDeviation="108.438" result="effect1_foregroundBlur_2_2489"/>
</filter>
<radialGradient id="paint0_radial_2_2489" cx="0" cy="0" r="1" gradientUnits="userSpaceOnUse" gradientTransform="translate(347 203) rotate(90) scale(691.108)">
<stop stop-color="#161618" stop-opacity="0"/>
<stop offset="0.46589" stop-color="#1B1E23"/>
</radialGradient>
<clipPath id="clip0_2_2489">
<rect width="694" height="694" fill="white" transform="translate(0 -144)"/>
</clipPath>
</defs>
</svg>
