<svg width="304" height="303" viewBox="0 0 304 303" fill="none" xmlns="http://www.w3.org/2000/svg">
<circle cx="152" cy="151.5" r="144" stroke="#00FF7F" stroke-width="15"/>
<circle cx="152" cy="151.5" r="149.5" stroke="#1B1E23" stroke-width="4"/>
<circle cx="152" cy="151.5" r="135" stroke="#1B1E23" stroke-width="4"/>
<path d="M100.531 128.375V174H92.25V138.031L81.2812 141.656V134.969L99.5938 128.375H100.531ZM144.049 147.344V155C144.049 158.5 143.695 161.49 142.986 163.969C142.278 166.448 141.257 168.479 139.924 170.062C138.59 171.625 136.997 172.781 135.143 173.531C133.288 174.26 131.226 174.625 128.955 174.625C127.143 174.625 125.455 174.396 123.893 173.938C122.33 173.458 120.924 172.729 119.674 171.75C118.445 170.75 117.382 169.479 116.486 167.938C115.611 166.396 114.934 164.552 114.455 162.406C113.997 160.26 113.768 157.792 113.768 155V147.344C113.768 143.844 114.122 140.865 114.83 138.406C115.559 135.948 116.59 133.938 117.924 132.375C119.257 130.812 120.851 129.677 122.705 128.969C124.559 128.24 126.622 127.875 128.893 127.875C130.726 127.875 132.413 128.104 133.955 128.562C135.518 129.021 136.913 129.74 138.143 130.719C139.393 131.677 140.455 132.927 141.33 134.469C142.205 135.99 142.872 137.823 143.33 139.969C143.809 142.094 144.049 144.552 144.049 147.344ZM135.799 156.125V146.188C135.799 144.438 135.695 142.917 135.486 141.625C135.299 140.312 135.018 139.198 134.643 138.281C134.268 137.365 133.799 136.625 133.236 136.062C132.674 135.479 132.028 135.052 131.299 134.781C130.57 134.51 129.768 134.375 128.893 134.375C127.809 134.375 126.84 134.594 125.986 135.031C125.132 135.448 124.413 136.115 123.83 137.031C123.247 137.948 122.799 139.167 122.486 140.688C122.195 142.188 122.049 144.021 122.049 146.188V156.125C122.049 157.875 122.143 159.406 122.33 160.719C122.538 162.031 122.83 163.156 123.205 164.094C123.601 165.031 124.07 165.802 124.611 166.406C125.174 166.99 125.82 167.427 126.549 167.719C127.278 167.99 128.08 168.125 128.955 168.125C130.059 168.125 131.028 167.906 131.861 167.469C132.715 167.031 133.434 166.344 134.018 165.406C134.601 164.448 135.038 163.208 135.33 161.688C135.643 160.146 135.799 158.292 135.799 156.125ZM178.691 147.344V155C178.691 158.5 178.337 161.49 177.629 163.969C176.92 166.448 175.9 168.479 174.566 170.062C173.233 171.625 171.639 172.781 169.785 173.531C167.931 174.26 165.868 174.625 163.598 174.625C161.785 174.625 160.098 174.396 158.535 173.938C156.973 173.458 155.566 172.729 154.316 171.75C153.087 170.75 152.025 169.479 151.129 167.938C150.254 166.396 149.577 164.552 149.098 162.406C148.639 160.26 148.41 157.792 148.41 155V147.344C148.41 143.844 148.764 140.865 149.473 138.406C150.202 135.948 151.233 133.938 152.566 132.375C153.9 130.812 155.493 129.677 157.348 128.969C159.202 128.24 161.264 127.875 163.535 127.875C165.368 127.875 167.056 128.104 168.598 128.562C170.16 129.021 171.556 129.74 172.785 130.719C174.035 131.677 175.098 132.927 175.973 134.469C176.848 135.99 177.514 137.823 177.973 139.969C178.452 142.094 178.691 144.552 178.691 147.344ZM170.441 156.125V146.188C170.441 144.438 170.337 142.917 170.129 141.625C169.941 140.312 169.66 139.198 169.285 138.281C168.91 137.365 168.441 136.625 167.879 136.062C167.316 135.479 166.67 135.052 165.941 134.781C165.212 134.51 164.41 134.375 163.535 134.375C162.452 134.375 161.483 134.594 160.629 135.031C159.775 135.448 159.056 136.115 158.473 137.031C157.889 137.948 157.441 139.167 157.129 140.688C156.837 142.188 156.691 144.021 156.691 146.188V156.125C156.691 157.875 156.785 159.406 156.973 160.719C157.181 162.031 157.473 163.156 157.848 164.094C158.243 165.031 158.712 165.802 159.254 166.406C159.816 166.99 160.462 167.427 161.191 167.719C161.92 167.99 162.723 168.125 163.598 168.125C164.702 168.125 165.67 167.906 166.504 167.469C167.358 167.031 168.077 166.344 168.66 165.406C169.243 164.448 169.681 163.208 169.973 161.688C170.285 160.146 170.441 158.292 170.441 156.125ZM182.99 139.656V137.25C182.99 135.521 183.365 133.948 184.115 132.531C184.865 131.115 185.959 129.979 187.396 129.125C188.855 128.271 190.625 127.844 192.709 127.844C194.834 127.844 196.615 128.271 198.052 129.125C199.511 129.979 200.605 131.115 201.334 132.531C202.084 133.948 202.459 135.521 202.459 137.25V139.656C202.459 141.344 202.084 142.896 201.334 144.312C200.605 145.729 199.521 146.865 198.084 147.719C196.646 148.573 194.875 149 192.771 149C190.667 149 188.886 148.573 187.427 147.719C185.969 146.865 184.865 145.729 184.115 144.312C183.365 142.896 182.99 141.344 182.99 139.656ZM188.584 137.25V139.656C188.584 140.448 188.73 141.198 189.021 141.906C189.334 142.594 189.802 143.156 190.427 143.594C191.052 144.031 191.834 144.25 192.771 144.25C193.709 144.25 194.469 144.031 195.052 143.594C195.657 143.156 196.105 142.594 196.396 141.906C196.709 141.198 196.865 140.448 196.865 139.656V137.25C196.865 136.438 196.709 135.677 196.396 134.969C196.105 134.26 195.646 133.688 195.021 133.25C194.417 132.812 193.646 132.594 192.709 132.594C191.792 132.594 191.021 132.812 190.396 133.25C189.792 133.688 189.334 134.26 189.021 134.969C188.73 135.677 188.584 136.438 188.584 137.25ZM204.834 165.25V162.844C204.834 161.135 205.209 159.573 205.959 158.156C206.73 156.74 207.844 155.604 209.302 154.75C210.761 153.896 212.521 153.469 214.584 153.469C216.73 153.469 218.521 153.896 219.959 154.75C221.396 155.604 222.48 156.74 223.209 158.156C223.959 159.573 224.334 161.135 224.334 162.844V165.25C224.334 166.958 223.959 168.521 223.209 169.938C222.48 171.354 221.396 172.49 219.959 173.344C218.542 174.198 216.771 174.625 214.646 174.625C212.563 174.625 210.782 174.198 209.302 173.344C207.844 172.49 206.73 171.354 205.959 169.938C205.209 168.521 204.834 166.958 204.834 165.25ZM210.459 162.844V165.25C210.459 166.062 210.625 166.823 210.959 167.531C211.292 168.219 211.771 168.781 212.396 169.219C213.042 169.656 213.792 169.875 214.646 169.875C215.688 169.875 216.511 169.656 217.115 169.219C217.719 168.781 218.146 168.219 218.396 167.531C218.646 166.823 218.771 166.062 218.771 165.25V162.844C218.771 162.031 218.615 161.281 218.302 160.594C217.99 159.885 217.521 159.312 216.896 158.875C216.292 158.438 215.521 158.219 214.584 158.219C213.667 158.219 212.896 158.438 212.271 158.875C211.667 159.312 211.209 159.885 210.896 160.594C210.605 161.281 210.459 162.031 210.459 162.844ZM216.646 135L194.427 170.562L190.334 168.281L212.552 132.719L216.646 135Z" fill="#F5F6F9"/>
</svg>
